<mxfile host="app.diagrams.net" modified="2023-07-21T07:20:26.691Z" agent="Mozilla/5.0 (Windows NT 10.0; Win64; x64) AppleWebKit/537.36 (KHTML, like Gecko) Chrome/115.0.0.0 Safari/537.36" version="21.6.2" etag="V2EOZPDeafonPVMGuzvW" type="github">
  <diagram name="Pagina-1" id="IIwEjGnP4fYkXtU1UhEC">
    <mxGraphModel>
      <root>
        <mxCell id="0" />
        <mxCell id="1" parent="0" />
      </root>
    </mxGraphModel>
  </diagram>
</mxfile>
